<?xml version="1.0" encoding="utf-8"?>
<!-- Generator: Adobe Illustrator 16.0.0, SVG Export Plug-In . SVG Version: 6.00 Build 0)  -->
<!DOCTYPE svg PUBLIC "-//W3C//DTD SVG 1.1//EN" "http://www.w3.org/Graphics/SVG/1.1/DTD/svg11.dtd">
<svg version="1.1" id="Layer_1" xmlns="http://www.w3.org/2000/svg" xmlns:xlink="http://www.w3.org/1999/xlink" x="0px" y="0px"
	 width="60px" height="60px" viewBox="0 0 60 60" enable-background="new 0 0 60 60" xml:space="preserve">
<g>
	<path fill="#FFFFFF" d="M43.8,57.7V60H16.2v-2.3c0-1.3,1-2.3,2.3-2.3h4.6c0.1-2.9,2-5.3,4.6-6.2V22c-1.2-0.8-2-2.1-2-3.7h2h4.6h2
		c0,1.5-0.8,2.9-2,3.7v27.1c2.6,0.9,4.5,3.3,4.6,6.2h4.6C42.8,55.4,43.8,56.4,43.8,57.7z M60,36.9c-1.7,4.8-6.2,8.2-11.5,8.2
		c-5.3,0-9.8-3.4-11.5-8.2h2.7l7.8-20.7c0.3-0.9,1.8-0.9,2.2,0l7.8,20.7H60z M54.9,36.9l-6.4-17l-6.4,17L54.9,36.9L54.9,36.9z
		 M11.5,13.8c1,0,1.9-0.7,2.2-1.7c0.8-0.3,1.5-0.7,2.4-1.1c1.8-0.9,3.8-1.9,5.8-1.9c2,0,3.2,0.9,4,1.7c0,0.2-0.1,0.4-0.1,0.6
		c0,2.3,1.9,4.2,4.2,4.2c2.3,0,4.2-1.9,4.2-4.2c0-0.2,0-0.4-0.1-0.6c0.7-0.8,2-1.7,4-1.7c2.1,0,4.1,1,5.8,1.9
		c0.8,0.4,1.6,0.8,2.4,1.1c0.3,1,1.1,1.7,2.2,1.7c1.3,0,2.3-1,2.3-2.3c0-1.3-1-2.3-2.3-2.3c-0.7,0-1.3,0.3-1.7,0.7
		c-0.6-0.2-1.2-0.5-1.8-0.9c-2-1-4.3-2.2-6.9-2.2c-2.3,0-3.9,0.9-5,1.8c-0.5-0.5-1.1-0.9-1.8-1.2c0.9-0.5,1.5-1.3,1.5-2.4
		C32.7,3.5,30,0,30,0s-2.7,3.5-2.7,5.1c0,1,0.6,1.9,1.5,2.4c-0.7,0.2-1.3,0.6-1.8,1.2c-1.1-0.9-2.7-1.8-5-1.8
		c-2.6,0-4.9,1.1-6.9,2.2c-0.6,0.3-1.2,0.6-1.8,0.9c-0.4-0.4-1-0.7-1.7-0.7c-1.3,0-2.3,1-2.3,2.3C9.2,12.7,10.2,13.8,11.5,13.8z
		 M11.5,45.1c-5.3,0-9.8-3.4-11.5-8.2h2.7l7.8-20.7c0.3-0.9,1.8-0.9,2.2,0l7.8,20.7h2.7C21.4,41.6,16.9,45.1,11.5,45.1z M17.9,36.9
		l-6.4-17l-6.4,17L17.9,36.9L17.9,36.9z"/>
</g>
</svg>
