<?xml version="1.0" encoding="utf-8"?>
<!-- Generator: Adobe Illustrator 16.0.0, SVG Export Plug-In . SVG Version: 6.00 Build 0)  -->
<!DOCTYPE svg PUBLIC "-//W3C//DTD SVG 1.1//EN" "http://www.w3.org/Graphics/SVG/1.1/DTD/svg11.dtd">
<svg version="1.1" id="Layer_1" xmlns="http://www.w3.org/2000/svg" xmlns:xlink="http://www.w3.org/1999/xlink" x="0px" y="0px"
	 width="60px" height="60px" viewBox="0 0 60 60" enable-background="new 0 0 60 60" xml:space="preserve">
<g>
	<path fill="#FFFFFF" d="M56,6.8h-2.1v43.1c0,2.9-2.8,5.2-6.3,5.2H25.8H8.5v1.6c0,1.8,1.8,3.3,4,3.3h21.7H56c2.2,0,4-1.5,4-3.3V10.1
		C60,8.3,58.2,6.8,56,6.8z"/>
	<path fill="#FFFFFF" d="M25.8,53.2h21.7c2.2,0,4-1.5,4-3.3V6.8V3.3c0-1.8-1.8-3.3-4-3.3H25.8h-7.2v1.1c0,0.1,0,0.2,0,0.4v7.2v1.9
		c0,2.6-2.6,4.7-5.7,4.7h-2.3H1.8c-0.1,0-0.2,0-0.4,0H0v34.7c0,1.8,1.8,3.3,4.1,3.3h4.4H25.8L25.8,53.2z M26.6,41.9H12.4
		c-1.1,0-1.9-0.7-1.9-1.6c0-0.9,0.9-1.6,1.9-1.6h14.2c1.1,0,1.9,0.7,1.9,1.6C28.5,41.2,27.6,41.9,26.6,41.9z M40.7,33.9H12.4
		c-1.1,0-1.9-0.7-1.9-1.6c0-0.9,0.9-1.6,1.9-1.6h28.3c1.1,0,1.9,0.7,1.9,1.6C42.6,33.2,41.8,33.9,40.7,33.9z M12.4,22.3h28.3
		c1.1,0,1.9,0.7,1.9,1.6c0,0.9-0.9,1.6-1.9,1.6H12.4c-1.1,0-1.9-0.7-1.9-1.6C10.5,23,11.4,22.3,12.4,22.3z"/>
	<path fill="#FFFFFF" d="M1.8,13.3h11.1c0,0,0,0,0,0c1.9,0,3.4-1.2,3.4-2.8c0,0,0,0,0,0V1.4c0-0.8-0.8-1.4-1.7-1.4
		c-0.4,0-0.8,0.1-1.2,0.4L0.6,10.9C-0.5,11.8,0.2,13.3,1.8,13.3z"/>
</g>
</svg>
