<?xml version="1.0" encoding="utf-8"?>
<!-- Generator: Adobe Illustrator 16.0.0, SVG Export Plug-In . SVG Version: 6.00 Build 0)  -->
<!DOCTYPE svg PUBLIC "-//W3C//DTD SVG 1.1//EN" "http://www.w3.org/Graphics/SVG/1.1/DTD/svg11.dtd">
<svg version="1.1" id="Layer_1" xmlns="http://www.w3.org/2000/svg" xmlns:xlink="http://www.w3.org/1999/xlink" x="0px" y="0px"
	 width="60px" height="60px" viewBox="0 0 60 60" enable-background="new 0 0 60 60" xml:space="preserve">
<g>
	<rect x="0" y="43.3" fill="#FFFFFF" width="7.7" height="13.3"/>
	<path fill="#FFFFFF" d="M28.1,4.6V0h2l2.2,1.9c0.5,0.4,1.3,0.4,1.8,0L36.3,0h4l2.2,1.9c0.5,0.4,1.3,0.4,1.8,0L46.5,0h2v4.6l-3,2.1
		H31.1L28.1,4.6z"/>
	<rect x="31.9" y="8.9" fill="#FFFFFF" width="12.8" height="3.3"/>
	<path fill="#FFFFFF" d="M56,51.3c-0.2,0.5-0.7,0.8-1.2,1l-19.7,6.5c-4.6,1.5-9.8,1.5-14.4-0.1l-10.5-3.8V44.4h3.2
		c4.2,0,8.4,0.9,12.2,2.5c1.2,0.5,2.6,0.8,4,0.8h9.9c1.1,0,1.9,0.8,1.9,1.7c0,0.8-0.6,1.4-1.5,1.6c-0.2,0-0.3,0-0.5,0H24.2v2.2h15.2
		c0,0,0.1,0,0.1,0c0,0,0.1,0,0.1,0c1,0,2-0.2,2.9-0.5l10.7-3.9c0.5-0.2,1.1-0.2,1.6,0c0.5,0.2,0.9,0.6,1.1,1
		C56.2,50.3,56.2,50.9,56,51.3z"/>
	<g>
		<g>
			<rect x="2.6" y="52.2" fill="#FFFFFF" width="2.6" height="2.2"/>
		</g>
	</g>
	<path fill="#FFFFFF" d="M45.7,14.4H30.9c-10.5,3.4-14.3,13.9-14.3,21.9c0,2.1,0.4,4.2,1.4,6.2c3.1,0.4,6,1.2,8.8,2.4
		c0.9,0.4,1.9,0.6,2.9,0.6h9.9c2.5,0,4.5,1.7,4.5,3.9c0,0.1,0,0.3,0,0.4l8.3-3.1c0.9-0.3,2-0.4,2.9-0.2c3.2-2.6,5-6.4,4.8-10.3
		C60,28.4,56.2,17.9,45.7,14.4z M39.9,35.6h-0.3v2.2H37v-2.2h-0.3c-1.9,0-3.5-1.4-3.5-3v-0.7h2.6v0.7c0,0.5,0.4,0.8,0.9,0.8h3.2
		c0.4,0,0.8-0.2,0.9-0.6c0.2-0.4-0.1-0.9-0.6-1l-4.6-1.3c-1.4-0.4-2.4-1.6-2.4-2.9c0-1.7,1.6-3,3.5-3H37v-2.2h2.5v2.2h0.3
		c1.9,0,3.5,1.4,3.5,3v0.7h-2.6v-0.7c0-0.5-0.4-0.8-0.9-0.8h-3.2c-0.4,0-0.8,0.2-0.9,0.6c-0.2,0.4,0.1,0.9,0.6,1l4.6,1.3
		c1.4,0.4,2.4,1.6,2.4,2.9C43.4,34.2,41.8,35.6,39.9,35.6z"/>
</g>
</svg>
