<?xml version="1.0" encoding="utf-8"?>
<!-- Generator: Adobe Illustrator 16.0.0, SVG Export Plug-In . SVG Version: 6.00 Build 0)  -->
<!DOCTYPE svg PUBLIC "-//W3C//DTD SVG 1.1//EN" "http://www.w3.org/Graphics/SVG/1.1/DTD/svg11.dtd">
<svg version="1.1" id="Layer_1" xmlns="http://www.w3.org/2000/svg" xmlns:xlink="http://www.w3.org/1999/xlink" x="0px" y="0px"
	 width="60px" height="60px" viewBox="0 0 60 60" enable-background="new 0 0 60 60" xml:space="preserve">
<g>
	<path fill="#FFFFFF" d="M48.5,55.1c-0.6-0.2-1.4-0.2-2,0L30,60l-16.5-4.9c-0.6-0.2-1.4-0.2-2,0L0,58.5l10-14l6.3-1.9l7.4,8.2
		c1.4,1.5,3.7,2.4,6.4,2.4c2.6,0,5-0.9,6.4-2.4l7.4-8.2l6.3,1.9l10,14L48.5,55.1z"/>
	<path fill="#FFFFFF" d="M44,5c-3.8-3.3-8.9-5.1-14.3-5C18.9,0.1,10.1,7.9,10,17.4c0,2.8,0.7,5.5,2.2,8l16.2,23.7
		c0.5,0.7,1.3,0.8,1.6,0.8c0.3,0,1.1-0.1,1.6-0.8l16.2-23.7c1.4-2.5,2.2-5.1,2.2-7.9C50,12.8,47.9,8.3,44,5z"/>
</g>
</svg>
