<?xml version="1.0" encoding="utf-8"?>
<!-- Generator: Adobe Illustrator 16.0.0, SVG Export Plug-In . SVG Version: 6.00 Build 0)  -->
<!DOCTYPE svg PUBLIC "-//W3C//DTD SVG 1.1//EN" "http://www.w3.org/Graphics/SVG/1.1/DTD/svg11.dtd">
<svg version="1.1" id="Layer_1" xmlns="http://www.w3.org/2000/svg" xmlns:xlink="http://www.w3.org/1999/xlink" x="0px" y="0px"
	 width="60px" height="60px" viewBox="0 0 60 60" enable-background="new 0 0 60 60" xml:space="preserve">
<g>
	<g>
		<path fill="#FFFFFF" d="M53.7,18.7v5.8l0.3,0.7l-0.3,0.1v10.3l3.4-1.6l0.8,2.1c0.3,0.9,0,2-0.8,2.3L15.4,57.7
			c-0.8,0.4-1.7-0.1-2-1l-0.8-2.1l31.9-14.7H22.1L9.4,45.7l-2.1-5.8H5.2l6.4,17.6c0.6,1.5,1.8,2.5,3.3,2.5c0.5,0,0.9-0.1,1.3-0.3
			l41.6-19.2c1.8-0.8,2.7-3.2,1.9-5.2L53.7,18.7z"/>
		<polygon fill="#FFFFFF" points="42.2,24.2 42.2,22.8 41.5,24.2 		"/>
		<polygon fill="#FFFFFF" points="17,22.8 16.2,24.2 17,24.2 		"/>
		<path fill="#FFFFFF" d="M21.7,24.8c0.1-0.1,0.1-0.2,0.1-0.4c0-0.2,0-0.3-0.1-0.4c-0.1-0.1-0.2-0.2-0.3-0.2c-0.1,0-0.2,0-0.3,0.1
			C21,24,21,24.2,21,24.4c0,0.2,0,0.3,0.1,0.4c0.1,0.1,0.2,0.2,0.3,0.2C21.6,25,21.7,25,21.7,24.8z"/>
		<path fill="#FFFFFF" d="M8.4,32.8c0.1,0,0.2,0,0.3-0.1c0.1-0.1,0.1-0.2,0.1-0.4v-0.2c0,0-0.1,0-0.1,0.1c0,0-0.1,0-0.1,0l-0.1,0
			c-0.1,0-0.2,0-0.2,0.1c-0.1,0.1-0.1,0.1-0.1,0.2c0,0.1,0,0.2,0.1,0.2C8.3,32.8,8.4,32.8,8.4,32.8z"/>
		<path fill="#FFFFFF" d="M28.3,25c0.1,0,0.2,0,0.3-0.1c0.1-0.1,0.1-0.2,0.1-0.4c0-0.2,0-0.3-0.1-0.4C28.5,24,28.4,24,28.3,24
			c-0.1,0-0.2,0-0.3,0.1c-0.1,0.1-0.1,0.2-0.1,0.4c0,0.2,0,0.3,0.1,0.4C28.1,25,28.2,25,28.3,25z"/>
		<path fill="#FFFFFF" d="M13.8,31.4c-0.1,0-0.2,0-0.3,0.1s-0.1,0.2-0.1,0.3h0.9c0-0.2-0.1-0.3-0.1-0.3C14.1,31.4,14,31.4,13.8,31.4
			z"/>
		<path fill="#FFFFFF" d="M30.6,22.7c-0.1,0-0.2,0-0.3,0.1c-0.1,0.1-0.2,0.3-0.2,0.5c0,0.2,0,0.3,0.1,0.4c0.1,0.1,0.2,0.1,0.3,0.1
			c0.1,0,0.2,0,0.2-0.1c0.1-0.1,0.2-0.3,0.2-0.5c0-0.2,0-0.3-0.1-0.4C30.8,22.7,30.7,22.7,30.6,22.7z"/>
		<path fill="#FFFFFF" d="M28.3,23.5c0.1,0,0.2,0,0.3-0.1c0.1-0.1,0.1-0.2,0.1-0.3c0-0.1,0-0.2-0.1-0.3s-0.2-0.1-0.3-0.1
			c-0.1,0-0.2,0-0.3,0.1c-0.1,0.1-0.1,0.2-0.1,0.3c0,0.1,0,0.2,0.1,0.3C28.1,23.4,28.2,23.5,28.3,23.5z"/>
		<path fill="#FFFFFF" d="M20,32.2c-0.1,0-0.2,0-0.2,0.1c-0.1,0-0.1,0.1-0.1,0.2c0,0.1,0,0.2,0.1,0.2c0,0,0.1,0.1,0.2,0.1
			c0.1,0,0.2,0,0.3-0.1c0.1-0.1,0.1-0.2,0.1-0.4v-0.2c0,0-0.1,0-0.1,0.1c0,0-0.1,0-0.1,0L20,32.2z"/>
		<path fill="#FFFFFF" d="M28.5,32.2c-0.1,0-0.2,0-0.2,0.1c-0.1,0-0.1,0.1-0.1,0.2c0,0.1,0,0.2,0.1,0.2c0,0,0.1,0.1,0.2,0.1
			c0.1,0,0.2,0,0.3-0.1c0.1-0.1,0.1-0.2,0.1-0.4v-0.2c0,0-0.1,0-0.1,0.1c0,0-0.1,0-0.1,0L28.5,32.2z"/>
		<path fill="#FFFFFF" d="M33.5,31.5c-0.1,0.1-0.1,0.2-0.1,0.3h0.9c0-0.2-0.1-0.3-0.1-0.3c-0.1-0.1-0.2-0.1-0.3-0.1
			C33.7,31.4,33.6,31.4,33.5,31.5z"/>
		<path fill="#FFFFFF" d="M46.7,25c0.1,0,0.2-0.1,0.3-0.2c0.1-0.1,0.1-0.2,0.1-0.4c0-0.2,0-0.3-0.1-0.4c-0.1-0.1-0.2-0.2-0.3-0.2
			c-0.1,0-0.2,0-0.3,0.1c-0.1,0.1-0.2,0.3-0.2,0.5c0,0.2,0,0.3,0.1,0.4C46.5,25,46.6,25,46.7,25z"/>
		<path fill="#FFFFFF" d="M5,24.7C5.1,24.9,5.2,25,5.3,25c0.2,0,0.3-0.1,0.3-0.3c0-0.2,0.1-0.4,0.1-0.7c0-0.1,0-0.1,0-0.1
			c0-0.4,0-0.7-0.1-0.9c-0.1-0.2-0.2-0.3-0.3-0.3c-0.2,0-0.3,0.1-0.3,0.3c-0.1,0.2-0.1,0.5-0.1,0.9c0,0.2,0,0.4,0,0.5
			C4.9,24.5,5,24.6,5,24.7z"/>
		<path fill="#FFFFFF" d="M2,37.5c0.5,0.2,1,0.4,1.5,0.4h0.9h2.1h19.9h22.4h0c1,0,1.8-0.4,2.5-1.1c0.7-0.7,1.1-1.8,1.1-2.9v-7.9
			v-4.8v-5.9V4c0-1.1-0.4-2.2-1.1-2.9C50.8,0.4,49.9,0,48.9,0H3.5C1.6,0,0,1.8,0,4v29.8C0,35.4,0.8,36.8,2,37.5z M4.3,23.8
			c0-0.5,0.1-1,0.2-1.3c0.1-0.3,0.4-0.4,0.8-0.4c0.4,0,0.6,0.1,0.8,0.4c0.1,0.3,0.2,0.7,0.2,1.1c0,0,0,0.1,0,0.1
			c0,0.5-0.1,1-0.2,1.3c-0.2,0.3-0.4,0.4-0.8,0.4c-0.4,0-0.6-0.1-0.8-0.4c-0.1-0.1-0.1-0.3-0.2-0.5C4.4,24.4,4.3,24.1,4.3,23.8z
			 M31.8,10.6c0-3,2.2-5.5,4.8-5.5c1.1,0,2,0.4,2.8,1c0.8-0.7,1.9-1.2,3-1.2c1,0,1.9,0.3,2.6,0.9c0.6,0.5,1.1,1.1,1.5,1.8
			c0.4,0.8,0.7,1.7,0.7,2.7c0,3-2.2,5.4-4.8,5.4c-1,0-2-0.4-2.8-1c-0.8,0.8-1.9,1.2-3,1.2c-1.6,0-2.9-0.8-3.8-2.1
			c-0.4-0.6-0.7-1.3-0.9-2C31.8,11.5,31.8,11.1,31.8,10.6z M30.8,31.6c0-0.1-0.1-0.2-0.3-0.2c-0.1,0-0.2,0.1-0.3,0.2
			c0,0.1,0,0.2,0,0.3v1.3h-0.5V31h0.5v0.3c0.1-0.1,0.1-0.2,0.2-0.2c0.1-0.1,0.2-0.1,0.4-0.1c0.1,0,0.3,0,0.4,0.1
			c0.1,0.1,0.1,0.2,0.2,0.3c0.1-0.1,0.2-0.2,0.2-0.3c0.1-0.1,0.2-0.1,0.3-0.1c0.1,0,0.2,0,0.3,0.1c0.1,0,0.2,0.1,0.2,0.2
			c0.1,0.1,0.1,0.2,0.1,0.3c0,0.1,0,0.2,0,0.3l0,1.4H32v-1.4c0-0.1,0-0.1,0-0.2c0-0.1-0.1-0.2-0.2-0.2c-0.1,0-0.2,0.1-0.3,0.2
			c0,0.1,0,0.2,0,0.2v1.3h-0.5v-1.3C30.9,31.7,30.9,31.7,30.8,31.6z M30.9,24.3c-0.1,0.1-0.2,0.1-0.4,0.1c-0.2,0-0.4-0.1-0.6-0.3
			c-0.2-0.2-0.3-0.4-0.3-0.8c0-0.4,0.1-0.6,0.3-0.9c0.2-0.2,0.4-0.3,0.7-0.3c0.4,0,0.8,0.2,0.9,0.7c0.1,0.3,0.1,0.6,0.1,1
			c0,0.4,0,0.7-0.1,1c-0.2,0.5-0.5,0.8-1,0.8c-0.2,0-0.4-0.1-0.6-0.2c-0.2-0.1-0.3-0.4-0.3-0.6h0.6c0,0.1,0.1,0.2,0.1,0.2
			c0.1,0.1,0.1,0.1,0.2,0.1c0.2,0,0.3-0.1,0.4-0.4c0-0.1,0.1-0.3,0.1-0.6C31,24.2,30.9,24.2,30.9,24.3z M27.4,23.3
			c0-0.1-0.1-0.2-0.1-0.3c0-0.2,0.1-0.4,0.2-0.6c0.2-0.2,0.4-0.2,0.7-0.2c0.3,0,0.5,0.1,0.7,0.2c0.2,0.2,0.2,0.4,0.2,0.6
			c0,0.1,0,0.2-0.1,0.3c0,0.1-0.1,0.2-0.3,0.3c0.1,0.1,0.3,0.2,0.3,0.4c0.1,0.2,0.1,0.3,0.1,0.5c0,0.3-0.1,0.5-0.3,0.7
			c-0.2,0.2-0.4,0.3-0.8,0.3c-0.3,0-0.6-0.1-0.7-0.3c-0.2-0.2-0.3-0.4-0.3-0.7c0-0.2,0-0.4,0.1-0.5s0.2-0.3,0.3-0.3
			C27.6,23.6,27.5,23.5,27.4,23.3z M28.7,31.5c-0.1,0-0.1-0.1-0.2-0.1c-0.1,0-0.2,0-0.3,0.1c0,0-0.1,0.1-0.1,0.2h-0.5
			c0-0.2,0.1-0.3,0.1-0.5c0.1-0.2,0.4-0.3,0.7-0.3c0.2,0,0.4,0,0.6,0.1c0.2,0.1,0.2,0.3,0.2,0.5v1c0,0.1,0,0.2,0,0.3
			c0,0.1,0,0.1,0,0.2c0,0,0,0.1,0.1,0.1v0.1h-0.5c0,0,0-0.1,0-0.1c0,0,0-0.1,0-0.1c-0.1,0.1-0.2,0.2-0.2,0.2
			c-0.1,0.1-0.2,0.1-0.4,0.1c-0.2,0-0.3-0.1-0.4-0.2c-0.1-0.1-0.2-0.3-0.2-0.5c0-0.3,0.1-0.5,0.3-0.6c0.1-0.1,0.2-0.1,0.4-0.1l0.2,0
			c0.1,0,0.2,0,0.2-0.1c0.1,0,0.1-0.1,0.1-0.2C28.8,31.5,28.8,31.5,28.7,31.5z M26.7,31.6c-0.1-0.1-0.1-0.2-0.3-0.2
			c-0.2,0-0.3,0.1-0.4,0.2c0,0.1,0,0.2,0,0.3v1.2h-0.5V31H26v0.3c0.1-0.1,0.1-0.2,0.2-0.2c0.1-0.1,0.2-0.1,0.4-0.1
			c0.2,0,0.4,0.1,0.5,0.2c0.1,0.1,0.2,0.3,0.2,0.6v1.5h-0.5v-1.3C26.8,31.7,26.7,31.6,26.7,31.6z M23.9,32.7c0,0,0.1,0,0.2,0
			c0,0,0,0,0.1,0c0,0,0,0,0,0v0.4l-0.2,0c-0.2,0-0.4,0-0.5-0.1c-0.1-0.1-0.1-0.2-0.1-0.3v-1.3h-0.3V31h0.3v-0.6h0.5V31h0.3v0.4h-0.3
			v1.1C23.9,32.7,23.9,32.7,23.9,32.7z M24,24c-0.1,0.2-0.2,0.5-0.2,0.8s-0.1,0.5-0.1,0.7h-0.6c0-0.6,0.2-1.2,0.5-1.8
			c0.2-0.4,0.4-0.7,0.5-0.8h-1.5l0-0.6h2.1v0.5c-0.1,0.1-0.2,0.3-0.4,0.5C24.2,23.5,24.1,23.7,24,24z M15.8,24.7v-0.6l1.1-2h0.6v2.1
			h0.3v0.5h-0.3v0.7H17v-0.7H15.8L15.8,24.7z M17.1,30.2h0.5v2.4H19v0.5h-1.8V30.2z M18.4,25.3c-0.2-0.2-0.3-0.4-0.3-0.7h0.6
			c0,0.1,0.1,0.3,0.1,0.3C18.9,25,19,25,19.1,25c0.1,0,0.2-0.1,0.3-0.2c0.1-0.1,0.1-0.3,0.1-0.4c0-0.2,0-0.3-0.1-0.4
			c-0.1-0.1-0.2-0.2-0.3-0.2c-0.1,0-0.1,0-0.2,0c-0.1,0-0.2,0.1-0.2,0.2l-0.5,0l0.2-1.8H20v0.6h-1.2l-0.1,0.7
			c0.1-0.1,0.2-0.1,0.2-0.1c0.1,0,0.2-0.1,0.3-0.1c0.2,0,0.5,0.1,0.6,0.3c0.2,0.2,0.3,0.4,0.3,0.8c0,0.3-0.1,0.6-0.3,0.8
			c-0.2,0.2-0.4,0.4-0.8,0.4C18.8,25.5,18.6,25.4,18.4,25.3z M20.3,31.5c-0.1,0-0.1-0.1-0.2-0.1c-0.1,0-0.2,0-0.3,0.1
			c0,0-0.1,0.1-0.1,0.2h-0.5c0-0.2,0.1-0.3,0.1-0.5c0.1-0.2,0.4-0.3,0.7-0.3c0.2,0,0.4,0,0.6,0.1c0.2,0.1,0.2,0.3,0.2,0.5v1
			c0,0.1,0,0.2,0,0.3c0,0.1,0,0.1,0,0.2c0,0,0,0.1,0.1,0.1v0.1h-0.5c0,0,0-0.1,0-0.1c0,0,0-0.1,0-0.1c-0.1,0.1-0.2,0.2-0.2,0.2
			c-0.1,0.1-0.2,0.1-0.4,0.1c-0.2,0-0.3-0.1-0.4-0.2c-0.1-0.1-0.2-0.3-0.2-0.5c0-0.3,0.1-0.5,0.3-0.6c0.1-0.1,0.3-0.1,0.4-0.1l0.2,0
			c0.1,0,0.2,0,0.2-0.1c0.1,0,0.1-0.1,0.1-0.2C20.4,31.5,20.3,31.5,20.3,31.5z M20.6,25c-0.1-0.3-0.2-0.6-0.2-1.1c0-0.3,0-0.5,0-0.6
			c0-0.3,0.1-0.5,0.2-0.7c0.1-0.2,0.2-0.3,0.3-0.4c0.1-0.1,0.3-0.1,0.5-0.1c0.3,0,0.5,0.1,0.6,0.2c0.2,0.2,0.3,0.4,0.3,0.6h-0.6
			c0-0.1,0-0.1-0.1-0.2c-0.1-0.1-0.2-0.2-0.3-0.2c-0.2,0-0.3,0.1-0.4,0.4c0,0.1-0.1,0.3-0.1,0.6c0.1-0.1,0.2-0.2,0.2-0.2
			c0.1,0,0.2-0.1,0.3-0.1c0.3,0,0.5,0.1,0.6,0.3c0.2,0.2,0.2,0.5,0.2,0.8c0,0.3-0.1,0.6-0.2,0.8c-0.2,0.2-0.4,0.4-0.8,0.4
			C21.1,25.5,20.8,25.4,20.6,25z M22.4,32.5c0,0-0.2-0.1-0.5-0.2c-0.2-0.1-0.4-0.1-0.5-0.2c-0.1-0.1-0.1-0.2-0.1-0.4
			c0-0.2,0.1-0.4,0.2-0.5c0.1-0.1,0.3-0.2,0.6-0.2c0.2,0,0.4,0.1,0.6,0.2c0.2,0.1,0.2,0.3,0.3,0.6h-0.5c0-0.1,0-0.1-0.1-0.2
			c-0.1-0.1-0.1-0.1-0.3-0.1c-0.1,0-0.2,0-0.2,0.1c0,0-0.1,0.1-0.1,0.1c0,0.1,0,0.1,0.1,0.1c0.1,0,0.2,0.1,0.5,0.2
			c0.2,0.1,0.4,0.1,0.5,0.2c0.1,0.1,0.2,0.2,0.2,0.4c0,0.2-0.1,0.4-0.2,0.5c-0.1,0.1-0.4,0.2-0.7,0.2c-0.3,0-0.5-0.1-0.7-0.2
			c-0.1-0.1-0.2-0.3-0.2-0.6h0.5c0,0.1,0,0.2,0.1,0.2c0.1,0.1,0.2,0.1,0.4,0.1c0.1,0,0.2,0,0.2-0.1c0.1,0,0.1-0.1,0.1-0.1
			C22.4,32.5,22.4,32.5,22.4,32.5z M13.6,32.7c0.1,0.1,0.2,0.1,0.3,0.1c0.1,0,0.2,0,0.3-0.1c0,0,0.1-0.1,0.1-0.2h0.5
			c0,0.1-0.1,0.3-0.2,0.4c-0.2,0.2-0.4,0.3-0.7,0.3c-0.3,0-0.5-0.1-0.7-0.3c-0.2-0.2-0.3-0.5-0.3-0.9c0-0.4,0.1-0.7,0.3-0.9
			c0.2-0.2,0.4-0.3,0.7-0.3c0.2,0,0.3,0,0.5,0.1c0.1,0.1,0.2,0.2,0.3,0.3c0.1,0.1,0.1,0.3,0.2,0.4c0,0.1,0,0.2,0,0.4h-1.4
			C13.4,32.5,13.5,32.6,13.6,32.7z M13.1,23c0,0.2-0.1,0.4-0.2,0.5c-0.1,0.1-0.1,0.1-0.2,0.2c0.1,0,0.1,0.1,0.2,0.2
			c0.1,0.2,0.2,0.4,0.2,0.6c0,0.3-0.1,0.5-0.3,0.7s-0.4,0.3-0.8,0.3c-0.4,0-0.7-0.2-0.9-0.5c-0.1-0.2-0.1-0.4-0.1-0.6h0.6
			c0,0.1,0,0.2,0.1,0.3c0.1,0.2,0.2,0.2,0.4,0.2c0.1,0,0.2,0,0.3-0.1c0.1-0.1,0.1-0.2,0.1-0.4c0-0.2-0.1-0.4-0.2-0.4
			C12.3,24,12.2,24,12,24v-0.5c0.2,0,0.3,0,0.4-0.1c0.1,0,0.1-0.1,0.2-0.2c0-0.1,0-0.1,0-0.2c0-0.1,0-0.2-0.1-0.3
			c-0.1-0.1-0.2-0.1-0.3-0.1c-0.1,0-0.2,0.1-0.3,0.1c-0.1,0.1-0.1,0.2-0.1,0.4h-0.5c0-0.2,0-0.3,0.1-0.5c0-0.1,0.1-0.2,0.2-0.4
			c0.1-0.1,0.2-0.1,0.3-0.2c0.1,0,0.2-0.1,0.4-0.1c0.3,0,0.5,0.1,0.7,0.2C13,22.5,13.1,22.7,13.1,23C13.1,23,13.1,23,13.1,23z
			 M12,31.6c0-0.1-0.1-0.2-0.2-0.2c-0.1,0-0.2,0.1-0.3,0.2c0,0.1,0,0.2,0,0.2v1.3h-0.5v-1.3c0-0.1,0-0.2,0-0.3
			c0-0.1-0.1-0.2-0.2-0.2c-0.1,0-0.2,0.1-0.3,0.2c0,0.1,0,0.2,0,0.3v1.3H9.8V31h0.5v0.3c0.1-0.1,0.1-0.2,0.2-0.2
			c0.1-0.1,0.2-0.1,0.4-0.1c0.1,0,0.3,0,0.4,0.1c0.1,0.1,0.1,0.2,0.2,0.3c0.1-0.1,0.2-0.2,0.2-0.3c0.1-0.1,0.2-0.1,0.3-0.1
			c0.1,0,0.2,0,0.3,0.1c0.1,0,0.2,0.1,0.2,0.2c0.1,0.1,0.1,0.2,0.1,0.3c0,0.1,0,0.2,0,0.3l0,1.4h-0.5v-1.4
			C12.1,31.7,12,31.6,12,31.6z M35.5,22.8c-0.1-0.1-0.2-0.1-0.3-0.1c-0.2,0-0.3,0.1-0.4,0.2c0,0.1-0.1,0.2-0.1,0.4h-0.6
			c0-0.3,0.1-0.5,0.1-0.7c0.2-0.3,0.4-0.5,0.8-0.5c0.3,0,0.6,0.1,0.7,0.3c0.2,0.2,0.3,0.4,0.3,0.8c0,0.2-0.1,0.5-0.2,0.6
			c-0.1,0.1-0.2,0.3-0.4,0.4l-0.2,0.2c-0.1,0.1-0.2,0.2-0.3,0.3c-0.1,0.1-0.1,0.1-0.1,0.2h1.3v0.6h-2c0-0.2,0.1-0.5,0.1-0.6
			c0.1-0.2,0.3-0.5,0.6-0.7c0.3-0.2,0.4-0.4,0.5-0.5c0.1-0.1,0.2-0.3,0.2-0.5C35.6,23,35.6,22.9,35.5,22.8z M34.2,31
			c0.1,0.1,0.2,0.2,0.3,0.3c0.1,0.1,0.1,0.3,0.2,0.4c0,0.1,0,0.2,0,0.4h-1.4c0,0.2,0.1,0.4,0.2,0.5c0.1,0.1,0.2,0.1,0.3,0.1
			c0.1,0,0.2,0,0.3-0.1c0,0,0.1-0.1,0.1-0.2h0.5c0,0.1-0.1,0.3-0.2,0.4c-0.2,0.2-0.4,0.3-0.7,0.3c-0.3,0-0.5-0.1-0.7-0.3
			c-0.2-0.2-0.3-0.5-0.3-0.9c0-0.4,0.1-0.7,0.3-0.9c0.2-0.2,0.4-0.3,0.7-0.3C34,30.9,34.1,31,34.2,31z M33.3,25.4h-0.6v-2.3h-0.7
			v-0.4c0.2,0,0.3,0,0.4,0c0.1,0,0.2-0.1,0.3-0.2c0-0.1,0.1-0.1,0.1-0.2c0-0.1,0-0.1,0-0.1h0.5V25.4z M40,24.1
			c-0.1,0-0.2-0.1-0.4-0.1v-0.5c0.2,0,0.3,0,0.4-0.1c0.1-0.1,0.2-0.2,0.2-0.4c0-0.1,0-0.2-0.1-0.3c-0.1-0.1-0.2-0.1-0.3-0.1
			c-0.1,0-0.2,0.1-0.3,0.1c-0.1,0.1-0.1,0.2-0.1,0.4h-0.5c0-0.2,0-0.3,0.1-0.5c0-0.1,0.1-0.2,0.2-0.4c0.1-0.1,0.2-0.1,0.3-0.2
			c0.1,0,0.2-0.1,0.4-0.1c0.3,0,0.5,0.1,0.7,0.2c0.2,0.2,0.3,0.4,0.3,0.7c0,0.2-0.1,0.4-0.2,0.5c-0.1,0.1-0.1,0.1-0.2,0.2
			c0.1,0,0.1,0,0.2,0.2c0.1,0.2,0.2,0.4,0.2,0.6c0,0.3-0.1,0.5-0.3,0.7c-0.2,0.2-0.4,0.3-0.8,0.3c-0.4,0-0.7-0.2-0.9-0.5
			c-0.1-0.2-0.1-0.4-0.1-0.6h0.6c0,0.1,0,0.2,0.1,0.3c0.1,0.2,0.2,0.2,0.4,0.2c0.1,0,0.2,0,0.3-0.1c0.1-0.1,0.1-0.2,0.1-0.4
			C40.2,24.3,40.1,24.1,40,24.1z M43.1,24.2v0.5h-0.3v0.7h-0.6v-0.7h-1.2v-0.6l1.1-2h0.7v2.1H43.1z M44.7,24
			c-0.1-0.1-0.2-0.2-0.3-0.2c-0.1,0-0.1,0-0.2,0c-0.1,0-0.2,0.1-0.2,0.2l-0.5,0l0.2-1.8h1.6v0.6h-1.2L44,23.5
			c0.1-0.1,0.2-0.1,0.2-0.1c0.1,0,0.2-0.1,0.3-0.1c0.2,0,0.5,0.1,0.6,0.3c0.2,0.2,0.3,0.4,0.3,0.8c0,0.3-0.1,0.6-0.3,0.8
			c-0.2,0.2-0.4,0.4-0.8,0.4c-0.3,0-0.5-0.1-0.7-0.3c-0.2-0.2-0.3-0.4-0.3-0.7h0.6c0,0.1,0.1,0.2,0.1,0.3c0.1,0.1,0.2,0.1,0.3,0.1
			c0.1,0,0.3-0.1,0.3-0.2c0.1-0.1,0.1-0.3,0.1-0.4C44.8,24.2,44.8,24.1,44.7,24z M47.6,23h-0.6c0-0.1,0-0.1-0.1-0.2
			c-0.1-0.1-0.2-0.2-0.3-0.2c-0.2,0-0.3,0.1-0.4,0.4c0,0.1-0.1,0.3-0.1,0.6c0.1-0.1,0.2-0.2,0.2-0.2s0.2-0.1,0.3-0.1
			c0.3,0,0.5,0.1,0.6,0.3c0.2,0.2,0.2,0.5,0.2,0.8c0,0.3-0.1,0.6-0.2,0.8c-0.2,0.2-0.4,0.4-0.8,0.4c-0.4,0-0.6-0.2-0.8-0.5
			c-0.1-0.3-0.2-0.6-0.2-1.1c0-0.3,0-0.5,0-0.6c0-0.3,0.1-0.5,0.2-0.7c0.1-0.2,0.2-0.3,0.3-0.4c0.1-0.1,0.3-0.1,0.5-0.1
			c0.3,0,0.5,0.1,0.7,0.2C47.5,22.5,47.6,22.7,47.6,23z M9.9,22.1c0.3,0,0.6,0.1,0.7,0.3c0.2,0.2,0.3,0.4,0.3,0.8
			c0,0.2-0.1,0.5-0.2,0.6c-0.1,0.1-0.2,0.3-0.4,0.4c0,0,0,0,0,0l-0.2,0.2c-0.1,0.1-0.2,0.2-0.3,0.2c-0.1,0.1-0.1,0.1-0.1,0.2h1.3
			v0.6h-2c0-0.2,0-0.4,0.1-0.6c0,0,0,0,0,0c0.1-0.2,0.3-0.5,0.6-0.7c0.3-0.2,0.4-0.4,0.5-0.5c0.1-0.1,0.2-0.3,0.2-0.5
			c0-0.1,0-0.3-0.1-0.3c-0.1-0.1-0.2-0.1-0.3-0.1c-0.2,0-0.3,0.1-0.4,0.2c0,0.1-0.1,0.2-0.1,0.4H9C9,23,9,22.8,9.1,22.6
			c0.1-0.1,0.2-0.2,0.3-0.3c0.1,0,0.1-0.1,0.2-0.1C9.7,22.2,9.8,22.1,9.9,22.1z M5.7,33.2H5.2v-2.9h0.6l1,2.1v-2.1h0.5v2.9H6.8
			l-1.1-2.1L5.7,33.2L5.7,33.2z M7.5,25.4v-2.3v0H6.8v-0.4c0.2,0,0.3,0,0.4,0c0.1,0,0.2-0.1,0.3-0.2c0-0.1,0.1-0.1,0.1-0.2
			c0-0.1,0-0.1,0-0.1h0.5v0.8v2.4v0.2H7.7H7.5L7.5,25.4z M5.6,15.1V13h1.9v2.1L5.6,15.1C5.6,15.2,5.6,15.2,5.6,15.1z M7.4,17.9
			c-0.7-0.2-1.4-0.9-1.7-1.7h1.7V17.9z M8.4,16.3H10v1.8H8.4V16.3z M11,16.3h1.7c-0.3,0.8-0.9,1.4-1.7,1.7V16.3z M12.9,15.1
			C12.9,15.2,12.9,15.2,12.9,15.1l-1.9,0V13h1.9L12.9,15.1L12.9,15.1z M10.5,11.9L10.5,11.9H10v3.3H8.4V9.8h1.9
			c1.2,0,2.2,0.9,2.5,2.1L10.5,11.9L10.5,11.9z M7.4,11.9H5.7C6,11,6.6,10.3,7.4,10V11.9z M7.9,32c0.1-0.1,0.2-0.1,0.4-0.1l0.2,0
			c0.1,0,0.2,0,0.2-0.1c0.1,0,0.1-0.1,0.1-0.2c0-0.1,0-0.2-0.1-0.2c-0.1,0-0.1-0.1-0.2-0.1c-0.1,0-0.2,0-0.3,0.1
			c0,0-0.1,0.1-0.1,0.2H7.7c0-0.2,0.1-0.3,0.1-0.5C8,31,8.2,30.9,8.6,30.9c0.2,0,0.4,0,0.6,0.1c0.2,0.1,0.2,0.3,0.2,0.5v1
			c0,0.1,0,0.2,0,0.3c0,0.1,0,0.1,0,0.2c0,0,0,0,0.1,0.1v0.1H8.9c0,0,0-0.1,0-0.1c0,0,0-0.1,0-0.1c-0.1,0.1-0.2,0.2-0.2,0.2
			c-0.1,0.1-0.2,0.1-0.4,0.1c-0.2,0-0.3-0.1-0.4-0.2c-0.1-0.1-0.2-0.3-0.2-0.5C7.7,32.3,7.8,32.1,7.9,32z"/>
		<path fill="#FFFFFF" d="M33.7,13.5c0.7,0.9,1.7,1.5,2.9,1.5c0.8,0,1.6-0.3,2.2-0.8h0.1h0.6h0.1h0.6h0.2c0,0,0,0,0,0
			c0.3-0.2,0.5-0.5,0.7-0.8h-0.4h-0.6h-0.6h0h-0.6h-0.6c-0.1-0.2-0.2-0.4-0.3-0.6h0.6h0.6H40h0.6h0.5h0.5c0.1-0.3,0.2-0.5,0.3-0.8
			h-0.5h-0.5h-0.5h-1.5h-0.5h-0.5c0-0.1,0-0.1-0.1-0.2c0-0.2,0-0.3-0.1-0.5h0.5h0.5h0.2h1.5h0.5h0.5H42c0-0.2,0.1-0.4,0.1-0.7
			c0-0.1,0-0.1,0-0.2h-0.6h-0.5h-0.2h-0.3h-1.9h-0.5h-0.5c0-0.2,0-0.5,0.1-0.7h0.5h0.5h1.7h0.5h0.5H42c-0.1-0.3-0.1-0.6-0.2-0.8
			h-0.6h-0.5h-0.5h-1.2h0h-0.5h-0.5C37.9,8.5,38,8.2,38.1,8h0.6h0.6h0.5h0.6h0.2h0.4h0.6c-0.1-0.1-0.2-0.2-0.2-0.4
			c-0.1-0.2-0.2-0.3-0.3-0.5h-0.5h-0.4h-0.2h-0.5h-0.3h-0.4c0-0.1,0.1-0.1,0.1-0.2c-0.6-0.4-1.3-0.7-2.1-0.7c-2.1,0-3.9,2-3.9,4.4
			c0,0.3,0,0.6,0.1,0.9C33,12.3,33.3,12.9,33.7,13.5z"/>
	</g>
</g>
</svg>
