<?xml version="1.0" encoding="utf-8"?>
<!-- Generator: Adobe Illustrator 16.0.0, SVG Export Plug-In . SVG Version: 6.00 Build 0)  -->
<!DOCTYPE svg PUBLIC "-//W3C//DTD SVG 1.1//EN" "http://www.w3.org/Graphics/SVG/1.1/DTD/svg11.dtd">
<svg version="1.1" id="Layer_1" xmlns="http://www.w3.org/2000/svg" xmlns:xlink="http://www.w3.org/1999/xlink" x="0px" y="0px"
	 width="270px" height="130px" viewBox="0 0 270 130" enable-background="new 0 0 270 130" xml:space="preserve">
<g>
	<g>
		<path fill="#FFFFFF" d="M78.4,129.6l-4.2-7.1c-0.2,0-0.4,0-0.6,0h-3.3v7h-3.1v-19.7h6.4c4.7,0,7.5,2.5,7.5,6.4
			c0,2.8-1.4,4.8-3.9,5.7l4.7,7.6H78.4z M74,119.8c2.7,0,4-1.6,4-3.5c0-2-1.4-3.5-4-3.5h-3.7v7H74z"/>
		<path fill="#FFFFFF" d="M99.1,126.7v2.9H85.4v-19.7h13.5v2.9H88.6v5.1h8.3v2.8h-8.3v6H99.1z"/>
		<path fill="#FFFFFF" d="M112.9,115.6c-0.4-2.2-2.3-3.4-4.4-3.4c-2.2,0-3.7,1.1-3.7,2.6c0,1.9,2.5,2.5,5,3.3c2.8,0.9,6.3,2.3,6.3,6
			c0,3.4-2.9,5.9-7.3,5.9c-4.2,0-6.9-2.4-7.8-5.9l3-0.8c0.4,2.1,2.1,3.9,4.9,3.9c2.5,0,4-1.3,4-3c0-2.5-3-3-5.8-3.9
			c-2.3-0.8-5.4-1.9-5.4-5.3c0-3.1,2.9-5.5,7-5.5c3.6,0,6.5,2.2,7.2,5.3L112.9,115.6z"/>
		<path fill="#FFFFFF" d="M119.5,129.6v-19.7h3.1v19.7H119.5z"/>
		<path fill="#FFFFFF" d="M135.9,109.9c5.6,0,10.2,4,10.2,9.9c0,5.9-4.5,9.8-10,9.8h-8.5v-19.7H135.9z M136.1,126.7
			c3.6,0,6.8-2.6,6.8-6.8c0-4.3-3.2-7-7-7h-5.2v13.9H136.1z"/>
		<path fill="#FFFFFF" d="M163.1,126.7v2.9h-13.7v-19.7H163v2.9h-10.4v5.1h8.3v2.8h-8.3v6H163.1z"/>
		<path fill="#FFFFFF" d="M184.1,109.9v19.7h-2.9l-7.2-9.7c-1.7-2.4-3.4-4.8-3.5-4.8h0c0,0,0.1,2.6,0.1,6.2v8.4h-3.1v-19.7h2.9
			l7.2,9.7c1.4,1.9,3.4,4.7,3.4,4.7h0c0,0-0.1-2.9-0.1-6v-8.4H184.1z"/>
		<path fill="#FFFFFF" d="M202.8,109.9v2.9h-6.4v16.8h-3.1v-16.8H187v-2.9H202.8z"/>
	</g>
	<path fill="#FFFFFF" d="M229.3,0l-0.1,0.1L229.2,0l-29,64.6C193.4,77.7,180,86,164.4,86c-22.5,0-40.2-16.6-40.2-40.6
		c0-24.4,17.8-40.8,40.2-40.8c10.3,0,19.6,3.5,26.6,9.6l2.8-3.6C185.9,3.9,175.7,0,164.4,0c-19.9,0-36.7,12.1-42.7,30.3
		C115.6,12.1,98.8,0,78.9,0c-25,0-45.1,19.1-45.1,45.4C33.8,64,43.9,79,58.6,86.2H4.7V0H0v90.8h81.5v-0.1
		c18.7-1,34.4-12.8,40.2-30.2c6,18.2,22.8,30.3,42.7,30.3c10.8,0,20.7-3.5,28.4-9.6l-4.3,9.6h5.2l5-11.3l6.6-14.8h0L225.1,20
		c1.9-4.2,3.9-9.5,4-9.5h0.1h0.1c0.1,0,2.1,5.2,4,9.5l19.9,44.6h0l6.6,14.8l5,11.3h5.2L229.3,0z M78.9,86.2
		c-22.5,0-40.2-16.7-40.2-40.8c0-24.4,17.8-40.8,40.2-40.8c22.4,0,40.4,16.3,40.4,40.8C119.2,69.4,101.2,86.2,78.9,86.2z"/>
</g>
</svg>
